<?xml version="1.0" encoding="UTF-8" standalone="no"?>
<svg xmlns="http://www.w3.org/2000/svg" width="512pt" height="512pt" viewBox="0 0 512 512">
<!--        xmlns:inkscape="http://www.inkscape.org/namespaces/inkscape"-->
<!--        version="1.0"-->
<!--        width="512.000000pt"-->
<!--        height="512.000000pt"-->
<!--        viewBox="0 0 512.000000 512.000000"-->
<!--        preserveAspectRatio="xMidYMid meet"-->
<!--        id="svg3829">-->
    <defs
            id="defs3833" />
    <g
            transform="translate(0.000000,512.000000) scale(0.100000,-0.100000)"
            stroke="none"
            class="stroke"
            id="g3827">
        <path
                d="M2315 5113 c-128 -16 -248 -35 -273 -44 -46 -16 -52 -43 -52 -227 l0 -168 -142 -47 c-77 -27 -195 -75 -261 -108 l-120 -60 -127 126 c-93 92 -133 125 -151 125 -130 0 -779 -649 -779 -779 0 -18 33 -58 125 -151 l126 -127 -60 -120 c-33 -66 -81 -183 -107 -261 l-48 -141 -183 -3 c-169 -3 -183 -4 -197 -23 -20 -26 -33 -88 -52 -248 -28 -230 -8 -678 36 -813 16 -48 43 -54 228 -54 l168 0 47 -142 c27 -77 75 -195 108 -261 l60 -120 -126 -127 c-92 -93 -125 -133 -125 -151 0 -130 649 -779 779 -779 18 0 58 33 151 125 l127 126 120 -60 c66 -33 183 -81 261 -107 l141 -48 3 -183 c3 -169 4 -183 23 -197 26 -20 88 -33 248 -52 230 -28 678 -8 813 36 48 16 54 43 54 228 l0 168 142 47 c77 27 195 75 261 108 l120 60 127 -126 c93 -92 133 -125 151 -125 130 0 779 649 779 779 0 18 -33 58 -125 151 l-126 127 60 120 c33 66 81 183 107 261 l48 141 183 3 c169 3 183 4 197 23 20 26 33 88 52 248 28 230 8 678 -36 813 -16 48 -43 54 -228 54 l-168 0 -47 142 c-27 77 -75 195 -108 261 l-60 120 126 127 c92 93 125 133 125 151 0 130 -649 779 -779 779 -18 0 -58 -33 -151 -125 l-127 -126 -120 60 c-66 33 -183 81 -261 107 l-141 48 -3 183 c-3 169 -4 183 -23 197 -50 38 -301 66 -560 65 -110 -1 -213 -4 -230 -6z m590 -146 l80 -12 5 -176 c6 -200 9 -210 84 -230 160 -42 363 -124 496 -201 102 -58 103 -58 249 87 l126 124 55 -41 c186 -139 379 -331 516 -515 l43 -58 -124 -126 c-145 -146 -145 -147 -87 -249 77 -133 159 -336 201 -496 20 -75 30 -78 230 -84 l176 -5 14 -85 c19 -116 19 -564 0 -680 l-14 -85 -176 -5 c-200 -6 -210 -9 -230 -84 -42 -160 -124 -363 -201 -496 -58 -102 -58 -103 87 -249 l124 -126 -41 -55 c-139 -186 -331 -379 -515 -516 l-58 -43 -126 124 c-146 145 -147 145 -249 87 -133 -77 -336 -159 -496 -201 -75 -20 -78 -30 -84 -230 l-5 -176 -85 -14 c-116 -19 -564 -19 -680 0 l-85 14 -5 176 c-6 200 -9 210 -84 230 -160 42 -363 124 -496 201 -102 58 -103 58 -249 -87 l-126 -124 -55 41 c-186 139 -379 331 -516 515 l-43 58 124 126 c145 146 145 147 87 249 -77 133 -159 336 -201 496 -20 75 -30 78 -230 84 l-176 5 -14 85 c-9 57 -14 170 -14 340 0 170 5 283 14 340 l14 85 176 5 c200 6 210 9 230 84 42 160 124 363 201 496 58 102 58 103 -87 249 l-124 126 43 58 c137 184 330 376 516 515 l55 41 126 -124 c146 -145 147 -145 249 -87 133 77 336 159 496 201 75 20 78 30 84 229 l5 177 45 7 c172 29 557 32 725 5z H2315 3856"
                id="path3823"
        />
        <path
                d="M2315 3856 c-235 -46 -408 -121 -585 -257 -238 -181 -401 -433 -478 -736 -25 -99 -27 -124 -27 -303 0 -179 2 -204 27 -303 125 -492 483 -850 975 -975 99 -25 124 -27 303 -27 179 0 204 2 303 27 492 125 850 483 975 975 25 99 27 124 27 303 0 179 -2 204 -27 303 -125 490 -483 850 -970 973 -87 22 -131 27 -278 30 -120 2 -197 -1 -245 -10z m475 -146 c284 -70 515 -220 681 -443 106 -141 166 -269 210 -450 34 -133 34 -381 0 -514 -56 -226 -148 -397 -300 -557 -159 -167 -354 -278 -594 -337 -133 -34 -381 -34 -514 0 -240 59 -435 170 -594 337 -152 160 -244 331 -300 557 -34 133 -34 381 0 514 71 288 220 517 444 684 168 126 323 189 567 233 65 12 318 -3 400 -24z"
                id="path3825" />
    </g>
    <path
            style="stroke-width:2.89265537"
            d="m 303.43955,661.68841 -17.35593,-1.87372 -0.83594,-23.60381 c -0.49537,-13.98723 -2.26314,-24.78132 -4.33899,-26.49397 -1.92667,-1.5896 -11.96406,-5.70799 -22.3053,-9.15196 -10.34124,-3.444 -28.13785,-10.72171 -39.548,-16.17269 -11.41016,-5.45101 -22.89663,-9.9109 -25.52548,-9.9109 -2.62885,0 -12.21072,7.08796 -21.29304,15.75103 l -16.51331,15.75102 -22.47705,-18.91313 C 120.88414,576.66806 103.10908,558.87455 93.74639,547.52913 l -17.023077,-20.62802 15.731,-16.4923 c 8.652047,-9.07079 15.730997,-18.64319 15.730997,-21.27204 0,-2.62887 -4.4599,-14.11532 -9.910893,-25.52549 -5.450992,-11.41016 -12.728699,-29.20676 -16.172686,-39.548 -3.443987,-10.34125 -7.56237,-20.37864 -9.151962,-22.3053 -1.712663,-2.07585 -12.506763,-3.84361 -26.493981,-4.33898 L 22.851977,396.58305 20.40628,368.09939 c -1.345134,-15.66601 -1.345134,-40.39822 0,-54.96045 l 2.445697,-26.47679 23.731799,-1.44633 c 13.052488,-0.79548 24.88782,-2.74802 26.300731,-4.33898 1.412915,-1.59096 6.180801,-13.30622 10.595302,-26.0339 4.414505,-12.72769 11.779177,-30.58887 16.365936,-39.69152 4.586765,-9.10266 8.339565,-18.90984 8.339565,-21.79373 0,-2.8839 -7.0939,-12.24924 -15.76423,-20.81186 l -15.764232,-15.56841 5.780203,-8.11754 C 93.139109,133.83022 118.17776,107.85834 136.79398,92.476966 l 18.48438,-15.272434 17.67381,15.766652 c 9.7206,8.671656 19.33343,15.772506 21.36185,15.779656 2.02842,0.007 12.44198,-4.35994 23.14124,-9.704645 10.69927,-5.344708 28.56508,-12.677297 39.7018,-16.29464 11.13673,-3.617347 21.87571,-7.864806 23.86441,-9.438804 2.36826,-1.874406 3.61582,-11.080806 3.61582,-26.683112 V 22.808335 l 17.78025,-1.858405 c 22.53289,-2.355151 60.16888,-2.347616 79.84687,0.016 l 15.18644,1.824105 v 22.18545 c 0,13.446854 1.42423,23.938058 3.61582,26.634953 1.9887,2.447226 12.72768,7.421353 23.8644,11.053611 11.13673,3.632258 29.00255,10.990638 39.70181,16.351955 10.69927,5.361306 21.53487,9.747836 24.07913,9.747836 2.54427,0 12.19706,-7.22161 21.45063,-16.048022 l 16.82467,-16.04803 16.94928,14.285755 c 17.62796,14.857767 40.65613,38.262637 54.15508,55.040947 l 7.84468,9.75041 -16.01678,16.79191 c -8.8092,9.23554 -16.01675,18.74424 -16.01675,21.13044 0,2.3862 5.25336,15.17437 11.67413,28.41814 6.42076,13.24377 13.70921,31.2389 16.19658,39.98919 2.48737,8.75028 6.59468,17.53672 9.12737,19.52542 2.77385,2.17809 13.42629,3.61582 26.7903,3.61582 h 22.18545 l 1.82411,15.18644 c 2.34403,19.51507 2.34403,62.92561 0,82.44068 l -1.82411,15.18644 h -23.83048 c -15.6096,0 -24.81768,1.24734 -26.69226,3.61582 -1.57398,1.9887 -5.82144,12.72768 -9.43879,23.8644 -3.61736,11.13673 -10.94995,29.00255 -16.29465,39.70182 -5.3447,10.69926 -9.71765,21.21641 -9.71765,23.37144 0,2.15505 7.10211,11.76633 15.78248,21.35844 l 15.78247,17.44019 -15.27525,18.48777 c -15.3838,18.61919 -41.35516,43.65766 -56.38572,54.36034 l -8.11754,5.78022 -15.56842,-15.76424 c -8.56263,-8.67033 -17.92795,-15.76422 -20.81187,-15.76422 -2.88389,0 -12.69106,3.75281 -21.79373,8.33955 -9.10264,4.58677 -26.96383,11.94357 -39.69151,16.34845 -12.72768,4.40488 -24.76836,10.01275 -26.75706,12.46191 -2.15069,2.64863 -3.61582,12.95065 -3.61582,25.42433 0,11.53423 -1.05313,21.62222 -2.34031,22.41773 -4.04289,2.49864 -73.49855,4.1769 -91.67099,2.21508 z m 76.65537,-149.35714 c 63.09043,-16.7676 112.97705,-67.65858 129.0415,-131.63948 6.32421,-25.18795 4.17757,-69.65344 -4.56508,-94.55989 -13.30138,-37.89368 -42.94329,-75.25164 -75.32905,-94.93788 -27.7139,-16.84637 -55.94063,-24.57707 -89.73703,-24.57707 -17.4736,0 -36.67155,1.8643 -47.21879,4.58539 -57.47285,14.82747 -107.27917,63.82195 -124.52302,122.4933 -6.26098,21.30267 -6.23506,74.69432 0.0465,95.85392 17.92456,60.37903 65.10224,106.005 126.9516,122.7761 19.39481,5.2591 65.55491,5.26214 85.33333,0.006 z"
            class="fill"
            fill="none"
            transform="scale(0.74999998)" />
</svg>
