<?xml version="1.0" encoding="UTF-8" standalone="no"?>
<svg
   id="svg8"
   version="1.1"
   viewBox="0 0 121.55833 49.483582"
   height="49.483582mm"
   width="121.55833mm">
<!--   viewBox="0 0 121.55833 49.483582"-->
<!--   height="49.483582mm"-->
<!--   width="121.55833mm"-->
  <defs
     id="defs2">
  </defs>
  <sodipodiNamedview
     fit-margin-bottom="0"
     fit-margin-right="0"
     fit-margin-left="0"
     fit-margin-top="0"
     borderopacity="1.0"
     bordercolor="#666666"
     pagecolor="red"
     id="base" />
  <metadata
     id="metadata5">
<!--    <rdf:RDF>-->
<!--      <cc:Work-->
<!--         rdf:about="">-->
<!--        <dc:format>image/svg+xml</dc:format>-->
<!--        <dc:type-->
<!--           rdf:resource="http://purl.org/dc/dcmitype/StillImage" />-->
<!--        <dc:title></dc:title>-->
<!--      </cc:Work>-->
<!--    </rdf:RDF>-->
  </metadata>
  <g
     transform="translate(-4.117648,-119.18628)"
     id="textLayer"
  >
    <text
       style="font-style:normal;font-variant:normal;font-weight:normal;font-stretch:normal;font-size:2.44829px;line-height:7.05;font-family:'Vegan Style Personal Use';-inkscape-font-specification:'Vegan Style Personal Use';letter-spacing:0px;word-spacing:0.393476px;baseline-shift:baseline;white-space:pre;inline-size:127.911;fill:#000101;fill-opacity:1;stroke:none;stroke-width:0.608604"
       x="24.683659"
       y="138.09085"
       id="text866"
       transform="matrix(3.4389572,0,0,11.902394,-58.994345,-1461.1172)" />
    <g
       style="font-style:normal;font-variant:normal;font-weight:normal;font-stretch:normal;font-size:12.7px;line-height:1.25;font-family:'Vegan Style Personal Use';-inkscape-font-specification:'Vegan Style Personal Use, Normal';font-variant-ligatures:normal;font-variant-caps:normal;font-variant-numeric:normal;font-variant-east-asian:normal;white-space:pre;inline-size:123.929;fill:#ffffff;fill-opacity:1;stroke:none;stroke-width:0.264583"
       id="textLayerInner"
       transform="translate(-44.241524,-10.72864)"
       aria-label="OmegaTw          ntyOne">
      <path
         style="fill:#ffffff;fill-opacity:1"
         id="path82"
         d="m 48.438547,171.1943 q 0.1524,-0.9525 0.6096,-1.9304 0.4699,-0.9906 1.1557,-1.8161 0.254,-0.9144 0.7493,-1.7907 0.508,-0.889 1.1684,-1.6764 0.6604,-0.8001 1.4224,-1.4732 0.7747,-0.6731 1.5748,-1.1684 0.8001,-0.508 1.5748,-0.8128 0.7874,-0.3048 1.4732,-0.3556 0.9525,0 1.6129,0.3302 0.6604,0.3302 1.0287,0.9144 0.381,0.5715 0.4826,1.3716 0.1143,0.7874 -0.0381,1.7018 -0.1905,1.0922 -0.6858,2.3114 -0.4826,1.2192 -1.2065,2.4003 -0.7239,1.1811 -1.651,2.2606 -0.9144,1.0795 -1.9558,1.8923 -1.0414,0.8001 -2.1717,1.2573 -1.1303,0.4699 -2.2606,0.4318 -0.9525,-0.0381 -1.5748,-0.3683 -0.6096,-0.3175 -0.9398,-0.8509 -0.3302,-0.5207 -0.4191,-1.1938 -0.0762,-0.6858 0.0508,-1.4351 z m 4.2037,-5.6007 q 0.3556,0 0.635,0.2159 0.2794,0.2159 0.4191,0.4953 0.1524,0.2794 0.1524,0.5461 0.0127,0.254 -0.1778,0.3429 -0.6477,0.1651 -1.2827,0.5715 -0.635,0.3937 -1.1811,0.9525 -0.0508,0.5334 0.0127,1.016 0.0762,0.4826 0.2921,0.9144 0.0254,0.1524 -0.1651,0.254 -0.1778,0.0889 -0.4318,0.127 -0.2413,0.0254 -0.4699,-0.0127 -0.2159,-0.0381 -0.2667,-0.1524 -0.0508,-0.1524 -0.0889,-0.2921 -0.0254,-0.1524 -0.0254,-0.3175 -0.4064,0.7239 -0.5461,1.4351 -0.0762,0.4191 0,0.7874 0.0762,0.3683 0.3302,0.635 0.254,0.2667 0.6858,0.4318 0.4445,0.1524 1.1176,0.1524 0.7239,0 1.5367,-0.4445 0.8128,-0.4572 1.6256,-1.2065 0.8128,-0.762 1.5748,-1.7399 0.762,-0.9779 1.3843,-2.032 0.6223,-1.0668 1.0541,-2.1209 0.4318,-1.0541 0.5842,-1.9558 0.0889,-0.5461 0.0508,-1.016 -0.0381,-0.4699 -0.2286,-0.8001 -0.1905,-0.3429 -0.5588,-0.5334 -0.3556,-0.2032 -0.9017,-0.2159 -0.7366,-0.0127 -1.5113,0.3175 -0.7747,0.3175 -1.5113,0.889 -0.7239,0.5588 -1.3843,1.3208 -0.6477,0.7493 -1.1303,1.5875 l 0.3175,-0.1397 z" />
      <path
         style="fill:#ffffff;fill-opacity:1"
         id="path84"
         d="m 68.995283,171.207 q -0.2413,0.3302 -0.635,0.8001 -0.3937,0.4699 -0.8636,0.9144 -0.4572,0.4445 -0.9525,0.762 -0.4953,0.3048 -0.9271,0.3048 -0.2667,0 -0.508,-0.1016 -0.2413,-0.0889 -0.3937,-0.2921 -0.1524,-0.2032 -0.2159,-0.5207 -0.0508,-0.3302 0.0381,-0.7747 0.0889,-0.381 0.2159,-0.7493 0.1397,-0.3683 0.3302,-0.7747 0.2032,-0.4064 0.4572,-0.8763 0.254,-0.4826 0.5842,-1.0795 0.1524,-0.2413 0.254,-0.4699 0.1016,-0.2286 0.127,-0.3683 -0.0254,0.0254 -0.1651,0.1524 -0.1397,0.127 -0.4445,0.3683 -0.5461,0.4445 -1.0033,0.889 -0.4445,0.4318 -0.9017,0.9652 -0.127,0.2159 -0.2413,0.4445 -0.1143,0.2286 -0.2286,0.4699 v -0.0254 q -0.2794,0.5842 -0.4953,1.1811 -0.2159,0.5842 -0.3556,1.2065 -0.0381,0.1524 -0.254,0.1397 -0.2159,-0.0127 -0.4572,-0.1143 -0.2413,-0.1143 -0.4445,-0.2794 -0.1905,-0.1778 -0.1778,-0.3429 0.2286,-1.0795 0.6731,-2.0828 0.4572,-1.0033 0.9906,-2.0066 0.1651,-0.3302 0.2921,-0.5842 0.1397,-0.254 0.2032,-0.3302 -0.1651,0.0762 -0.6731,0.4699 -0.5334,0.4445 -0.9906,0.889 -0.4445,0.4445 -0.9144,0.9779 -0.4318,0.7874 -0.7747,1.6129 -0.3429,0.8128 -0.5588,1.651 -0.0508,0.1397 -0.2667,0.127 -0.2159,-0.0127 -0.4572,-0.1143 -0.2286,-0.1143 -0.4064,-0.2794 -0.1905,-0.1651 -0.1778,-0.3302 0.1143,-0.5715 0.2921,-1.1049 0.1905,-0.5461 0.4191,-1.0668 0.2286,-0.5334 0.4826,-1.0414 0.2667,-0.5207 0.5334,-1.0414 0.3048,-0.6096 0.5969,-1.1811 0.2921,-0.5842 0.5207,-1.1176 0.1524,-0.0762 0.3683,0 0.2286,0.0635 0.4318,0.2159 0.2032,0.1524 0.3556,0.381 0.1524,0.2159 0.1905,0.4572 0.5461,-0.4572 1.1049,-0.7747 0.5588,-0.3175 1.1176,-0.3556 0.1397,0 0.2794,0.1016 0.1524,0.1016 0.2667,0.2667 0.127,0.1651 0.2032,0.3683 0.0762,0.2032 0.0889,0.3937 0.5334,-0.4572 1.0922,-0.7747 0.5715,-0.3175 1.143,-0.3556 0.1651,0 0.3429,0.1651 0.1778,0.1524 0.3048,0.3937 0.127,0.2286 0.1651,0.4953 0.0381,0.2667 -0.0762,0.4699 v -0.0127 q -0.3302,0.6985 -0.635,1.2319 -0.2921,0.5334 -0.5461,0.9652 -0.2032,0.3556 -0.3683,0.6604 -0.1651,0.3048 -0.3048,0.5969 -0.1397,0.2921 -0.254,0.5969 -0.1016,0.3048 -0.1905,0.6477 l 0.0635,-0.0889 q 0.4064,-0.1905 0.9525,-0.6477 0.5588,-0.4572 1.1684,-1.2446 0.1778,-0.2159 0.3302,-0.4445 0.1651,-0.2413 0.3429,-0.4953 l 0.2032,-0.2794 q 0.1397,-0.1651 0.3048,-0.1778 0.1778,-0.0127 0.2921,0.0889 0.127,0.0889 0.1524,0.2667 0.0254,0.1651 -0.127,0.381 -0.2159,0.3048 -0.4445,0.6096 -0.2159,0.3048 -0.4318,0.6096 z" />
      <path
         style="fill:#ffffff;fill-opacity:1"
         id="path86"
         d="m 74.099492,168.6924 q -0.762,1.143 -1.8034,1.905 -1.0287,0.762 -2.2098,1.1303 -0.0381,0.3429 0.0381,0.6477 0.0889,0.3048 0.381,0.3683 l -0.0254,-0.0127 q 0.2413,0.0635 0.5842,-0.0381 0.3556,-0.1016 0.762,-0.3556 0.4191,-0.2667 0.8763,-0.6858 0.4572,-0.4191 0.9144,-0.9906 0.2413,-0.3048 0.4572,-0.6223 0.2286,-0.3302 0.4318,-0.6223 0.1397,-0.1651 0.3048,-0.1778 0.1778,-0.0127 0.2921,0.0889 0.127,0.0889 0.1524,0.2667 0.0381,0.1651 -0.1143,0.381 l -0.3175,0.4572 q -0.4064,0.5715 -0.9906,1.27 -0.5715,0.6858 -1.3081,1.3335 -0.4318,0.3556 -0.8382,0.5588 -0.4064,0.1905 -0.7493,0.2794 -0.3429,0.1016 -0.6223,0.1143 -0.2667,0.0254 -0.4191,0.0254 -0.9906,0 -1.4351,-0.5715 -0.4318,-0.5715 -0.3048,-1.5621 0.1143,-0.8636 0.5461,-1.6891 0.4445,-0.8255 1.2446,-1.7907 0.2794,-0.3175 0.6985,-0.6731 0.4191,-0.3683 0.9144,-0.6731 0.4953,-0.3048 1.0287,-0.4953 0.5461,-0.1905 1.0414,-0.1778 0.5207,0.0127 0.7874,0.3556 0.2667,0.3302 0.1651,0.9017 -0.0381,0.254 -0.1651,0.5207 -0.1143,0.254 -0.3302,0.5461 z m -0.6604,-1.0414 q -0.4572,0.0889 -0.9017,0.4064 -0.4445,0.3175 -0.8382,0.7493 -0.3937,0.4318 -0.7239,0.9271 -0.3302,0.4826 -0.5461,0.9144 0.9017,-0.3683 1.6764,-0.9906 0.7747,-0.635 1.3208,-1.5113 v 0.0127 q 0.0762,-0.1016 0.1016,-0.2032 0.0381,-0.1016 0.0635,-0.1778 0.0254,-0.1778 -0.1524,-0.127 z" />
      <path
         style="fill:#ffffff;fill-opacity:1"
         id="path88"
         d="m 76.475781,175.3599 0.3683,0.254 q 0.3937,0.254 0.8001,0.4953 0.4064,0.254 0.9017,0.4699 h -0.0127 q 0.1143,0.0381 0.0381,0.254 -0.0635,0.2286 -0.254,0.4826 -0.1905,0.2667 -0.4953,0.4699 -0.2921,0.2032 -0.635,0.2032 -0.2921,0 -0.5207,-0.1651 l -0.6985,-0.5461 q -0.1524,-0.1397 -0.3048,-0.254 -0.1524,-0.1143 -0.2921,-0.2159 -0.4572,0.5588 -0.9271,1.016 -0.4699,0.4699 -1.0033,0.8128 -0.5207,0.3429 -1.1049,0.5334 -0.5969,0.2032 -1.2827,0.2159 -0.4064,0 -0.8001,-0.0889 -0.3937,-0.0762 -0.6858,-0.2921 -0.3048,-0.2159 -0.4572,-0.5969 -0.1651,-0.3683 -0.0889,-0.9398 0.0762,-0.6731 0.4572,-1.2573 0.381,-0.5842 0.9525,-1.016 0.5715,-0.4191 1.27,-0.6604 0.6985,-0.2286 1.397,-0.2286 0.3556,0 0.6477,0.0254 0.2921,0.0254 0.5334,0.0635 0.254,0.0508 0.4699,0.127 0.2286,0.0762 0.4445,0.1651 l 0.6604,-1.1176 0.0508,-0.0889 q -0.3175,0.2032 -0.6223,0.3175 -0.3048,0.127 -0.5969,0.1397 -0.4826,-0.0508 -0.7747,-0.2667 -0.2794,-0.2286 -0.4191,-0.5334 -0.1397,-0.3048 -0.1651,-0.6477 -0.0127,-0.3556 0.0254,-0.6604 0.0508,-0.2794 0.1143,-0.4572 0.127,-0.4699 0.4191,-1.0287 0.2921,-0.5588 0.6985,-1.1176 0.4064,-0.5588 0.889,-1.0795 0.4953,-0.5207 1.0414,-0.9271 0.5461,-0.4064 1.1049,-0.6477 0.5715,-0.2413 1.1303,-0.2413 0.1651,0 0.3175,0.0254 0.1524,0.0254 0.3302,0.0762 0.3048,0.1016 0.4572,0.3302 0.1651,0.2159 0.2159,0.5207 0.0635,0.2921 0.0381,0.635 -0.0127,0.3302 -0.0889,0.6604 -0.0127,0.0635 -0.0889,0.1143 -0.0762,0.0381 -0.1778,0.0635 -0.1016,0.0254 -0.2159,0.0254 -0.1143,0 -0.2032,-0.0254 0.1905,0.1016 0.3556,0.2667 0.1778,0.1524 0.2921,0.3302 0.1143,0.1778 0.1397,0.381 0.0381,0.1905 -0.0508,0.3683 z m -0.7493,-3.0099 q 0.1651,-0.0381 0.4191,-0.2413 0.254,-0.2032 0.5334,-0.4826 0.2921,-0.2794 0.5842,-0.5969 0.2921,-0.3302 0.5207,-0.6223 0.254,-0.4445 0.4826,-0.9017 0.2286,-0.4572 0.3302,-0.8763 0.2286,-0.0889 0.5715,0.0508 -0.0381,-0.0635 -0.0254,-0.127 0.0127,-0.0381 0,-0.0889 0,-0.0508 0.0127,-0.1016 0.0127,-0.127 0.0127,-0.2667 0,-0.1397 -0.0381,-0.254 -0.0381,-0.127 -0.127,-0.2032 -0.0889,-0.0762 -0.2413,-0.0889 -0.4699,-0.0127 -0.9652,0.3429 -0.4953,0.3429 -0.9525,0.8763 -0.4572,0.5334 -0.8382,1.143 -0.3683,0.6096 -0.5842,1.1049 -0.0635,0.1397 -0.127,0.3556 -0.0635,0.2032 -0.0889,0.4064 -0.0254,0.1397 -0.0254,0.2667 0,0.127 0.0508,0.2159 0.0635,0.0889 0.1778,0.1143 0.1143,0.0254 0.3175,-0.0254 z m -3.8735,5.9182 q 0.6477,-0.2794 1.2446,-0.8636 0.5969,-0.5715 1.143,-1.2954 -0.3302,-0.1397 -0.6731,-0.2286 -0.3429,-0.0762 -0.7112,-0.0889 -0.4191,-0.0127 -0.9017,0.0762 -0.4953,0.1016 -0.9144,0.3048 -0.4318,0.2032 -0.7366,0.508 -0.3048,0.3048 -0.3556,0.7239 -0.0381,0.2794 0.0381,0.4699 0.0762,0.1905 0.2413,0.3048 0.1524,0.127 0.3683,0.1778 0.2159,0.0635 0.4445,0.0635 0.2032,0 0.4191,-0.0508 0.2159,-0.0381 0.3937,-0.1016 z" />
      <path
         style="fill:#ffffff;fill-opacity:1"
         id="path90"
         d="m 86.319471,168.5781 q -0.0127,0.0762 -0.1016,0.127 -0.0762,0.0381 -0.1905,0.0635 -0.1143,0.0127 -0.2413,0.0127 -0.1143,0 -0.2032,-0.0381 0.1778,0.1143 0.3302,0.2667 0.1524,0.1524 0.254,0.3429 0.1016,0.1778 0.127,0.3683 0.0381,0.1905 -0.0381,0.3683 -0.0508,0.0889 -0.1143,0.2032 -0.0635,0.1016 -0.127,0.2159 -0.1397,0.2413 -0.2921,0.5207 -0.1397,0.2794 -0.2667,0.5461 -0.127,0.2667 -0.2286,0.508 -0.0889,0.2286 -0.1143,0.3937 0,0.0254 -0.0254,0.0381 -0.0127,0.0127 -0.0254,0.0254 h 0.0889 q 0.381,-0.127 0.7366,-0.4191 0.3556,-0.2921 0.6858,-0.6604 0.3429,-0.381 0.6477,-0.8001 0.3175,-0.4318 0.5969,-0.8255 0.1016,-0.1016 0.1524,-0.1778 0.0508,-0.0762 0.1016,-0.1651 0.0508,-0.0635 0.1905,-0.0254 0.1397,0.0254 0.2667,0.1143 0.127,0.0889 0.2032,0.2159 0.0762,0.1143 0,0.2032 l -0.3683,0.508 v 0.0127 q -0.5461,0.7493 -1.143,1.4859 -0.5842,0.7239 -1.3081,1.3081 -0.1143,0.1016 -0.2921,0.2286 -0.1651,0.1143 -0.381,0.2159 -0.2032,0.1143 -0.4445,0.1778 -0.2413,0.0762 -0.4953,0.0635 -0.6096,-0.0508 -0.8636,-0.4318 -0.2413,-0.381 -0.1778,-0.9525 -0.5715,0.5334 -1.1557,0.9271 -0.5842,0.381 -1.1176,0.3937 -0.4826,-0.0508 -0.7747,-0.2667 -0.2794,-0.2286 -0.4191,-0.5334 -0.1397,-0.3048 -0.1651,-0.6477 -0.0127,-0.3556 0.0254,-0.6604 0.0508,-0.2794 0.1143,-0.4572 0.127,-0.4699 0.4191,-1.0287 0.2921,-0.5588 0.6985,-1.1176 0.4064,-0.5588 0.889,-1.0795 0.4953,-0.5207 1.0414,-0.9271 0.5461,-0.4064 1.1049,-0.6477 0.5715,-0.2413 1.1303,-0.2413 0.1651,0 0.3175,0.0254 0.1524,0.0254 0.3302,0.0762 0.3048,0.1016 0.4572,0.3302 0.1651,0.2159 0.2159,0.5207 0.0635,0.2921 0.0381,0.635 -0.0127,0.3302 -0.0889,0.6604 z m -1.4859,0 q 0.127,-0.0635 0.2921,-0.0254 0.1778,0.0381 0.3556,0.1397 -0.0635,-0.0635 -0.0381,-0.1397 0.0127,-0.0381 0,-0.0889 0,-0.0508 0.0127,-0.1016 0.0127,-0.127 0.0127,-0.2667 0,-0.1397 -0.0381,-0.254 -0.0381,-0.127 -0.127,-0.2032 -0.0889,-0.0762 -0.2413,-0.0889 -0.4699,-0.0127 -0.9652,0.3429 -0.4953,0.3429 -0.9525,0.8763 -0.4572,0.5334 -0.8382,1.143 -0.3683,0.6096 -0.5842,1.1049 -0.0635,0.1397 -0.127,0.3556 -0.0635,0.2032 -0.0889,0.4064 -0.0254,0.1397 -0.0254,0.2667 0,0.127 0.0508,0.2159 0.0635,0.0889 0.1778,0.1143 0.1143,0.0254 0.3175,-0.0254 0.1905,-0.0508 0.4826,-0.2921 0.2921,-0.2413 0.6096,-0.5588 0.3302,-0.3302 0.635,-0.6985 0.3175,-0.3683 0.5334,-0.6604 0.1905,-0.381 0.3429,-0.7366 0.1651,-0.3683 0.2286,-0.6223 z" />
      <path
         style="fill:#ffffff;fill-opacity:1"
         id="path92"
         d="m 89.268649,167.0287 q -0.0381,0.1397 -0.254,0.1651 -0.2159,0.0127 -0.4699,-0.0508 -0.254,-0.0635 -0.4826,-0.1778 -0.2159,-0.1143 -0.254,-0.2286 0.1651,-1.016 0.5207,-1.8161 0.3683,-0.8001 0.8509,-1.4097 0.4953,-0.6096 1.0668,-1.0541 0.5842,-0.4445 1.1811,-0.762 0.5969,-0.3302 1.1684,-0.5334 0.5842,-0.2159 1.0668,-0.3556 0.8509,-0.254 1.7399,-0.3429 0.9017,-0.1016 1.7399,-0.1016 0.7366,0 1.4986,0.0508 0.7747,0.0381 1.447801,0.1016 0.6096,0.0508 1.2065,0.0889 0.5969,0.0381 1.143,0.0381 0.6858,0 1.2573,-0.0762 0.5715,-0.0889 1.0541,-0.3048 0.1016,-0.0381 0.0889,0.2032 -0.0127,0.2413 -0.0889,0.5715 -0.0762,0.3175 -0.1905,0.6223 -0.1143,0.2921 -0.2159,0.3556 -0.5715,0.2159 -1.1938,0.3048 -0.6096,0.0889 -1.2446,0.0889 -0.7112,0 -1.4351,-0.0762 -0.723901,-0.0762 -1.473201,-0.1651 -0.8128,-0.0889 -1.6256,-0.1651 -0.8128,-0.0889 -1.6256,-0.0889 -0.508,0 -1.016,0.0508 -0.4953,0.0381 -1.0287,0.1397 -0.6985,0.1397 -1.3843,0.4699 -0.6731,0.3175 -1.27,0.9017 -0.5842,0.5715 -1.0541,1.4478 -0.4572,0.8763 -0.7239,2.1082 z m 6.5913,-5.0419 q 0.1016,-0.1016 0.3683,0.0127 0.2667,0.1143 0.508,0.3556 0.2413,0.2286 0.381,0.5588 0.1397,0.3175 -0.0127,0.635 -0.7747,0.8509 -1.5621,1.8415 -0.7874,0.9906 -1.524,2.0447 -0.7366,1.0414 -1.4097,2.1082 -0.6731,1.0668 -1.2192,2.0701 -0.5461,1.0033 -0.9525,1.905 -0.3937,0.9017 -0.5969,1.6129 -0.0254,0.1016 -0.1905,-0.0254 -0.1651,-0.127 -0.3556,-0.3429 -0.1778,-0.2159 -0.3175,-0.4572 -0.1397,-0.2286 -0.127,-0.3429 0.1651,-0.762 0.5842,-1.7399 0.4191,-0.9779 0.9906,-2.0574 0.5842,-1.0795 1.2827,-2.2098 0.6985,-1.1303 1.4224,-2.2098 0.7239,-1.0795 1.4224,-2.0447 0.7112,-0.9652 1.3081,-1.7145 z" />
      <path
         style="fill:#ffffff;fill-opacity:1"
         id="path94"
         d="m 99.640978,166.4318 q 0.1905,-0.0889 0.444502,0.0254 0.2667,0.1143 0.4699,0.3556 0.2159,0.2413 0.3048,0.5461 0.1016,0.3048 -0.0254,0.5969 -0.0762,0.1397 -0.254,0.4445 -0.1651,0.3048 -0.3937,0.6985 -0.292102,0.508 -0.635002,1.1176 -0.3429,0.5969 -0.6604,1.1303 -0.3048,0.5207 -0.5334,0.889 -0.2159,0.3556 -0.254,0.3937 0.2159,-0.0381 0.6731,-0.4318 0.4699,-0.4064 1.0414,-0.9906 0.571502,-0.5969 1.181102,-1.2954 0.6096,-0.7112 1.1303,-1.3716 0.5207,-0.6604 0.8763,-1.1938 0.3556,-0.5461 0.4191,-0.8128 0.1016,-0.127 0.2413,0.0254 0.1397,0.1397 0.2413,0.3937 0.1016,0.2413 0.127,0.5207 0.0381,0.2667 -0.0635,0.4064 -0.3429,0.4318 -0.8509,1.0668 -0.508,0.6223 -1.1049,1.3208 -0.5969,0.6858 -1.2573,1.3716 -0.6604,0.6731 -1.308102,1.2192 -0.6477,0.5461 -1.2573,0.8763 -0.5969,0.3429 -1.0795,0.3302 -0.4064,0 -0.6096,-0.3048 -0.2032,-0.3048 -0.1016,-0.889 0,-0.0254 0,-0.0508 0.0127,-0.0381 0.0127,-0.0635 -0.2794,0.3048 -0.5842,0.5588 -0.1143,0.1016 -0.2921,0.2286 -0.1778,0.1143 -0.3937,0.2159 -0.2159,0.1016 -0.4572,0.1651 -0.2413,0.0762 -0.4826,0.0762 -0.5461,-0.0254 -0.7366,-0.4699 -0.1778,-0.4445 -0.0762,-1.0795 0.0254,-0.1397 0.0508,-0.3048 0.0381,-0.1651 0.0889,-0.3048 0.1016,-0.2794 0.254,-0.635 0.1524,-0.3683 0.3429,-0.7493 0.1905,-0.3937 0.3937,-0.8001 0.2032,-0.4191 0.3937,-0.8255 0.3175,-0.6477 0.5969,-1.2319 0.2794,-0.5969 0.4445,-0.9906 l 0.1524,-0.1778 q 0.1905,-0.0889 0.4445,0.0254 0.2667,0.1143 0.4699,0.3556 0.2159,0.2413 0.3048,0.5461 0.1016,0.3048 -0.0254,0.5969 -0.0635,0.1143 -0.1905,0.3429 -0.127,0.2286 -0.3048,0.5207 l 0.0127,-0.0127 q -0.254,0.4191 -0.5588,0.9398 -0.2921,0.508 -0.5588,1.016 -0.2667,0.508 -0.4699,0.9652 -0.1905,0.4445 -0.2286,0.7112 -0.0508,0.1016 -0.0508,0.1016 h 0.1143 q 0.3556,-0.1397 0.7493,-0.4826 0.4064,-0.3556 0.7874,-0.8001 0.3937,-0.4572 0.7493,-0.9398 0.3556,-0.4953 0.6477,-0.9144 h -0.0127 q 0.0762,-0.1143 0.127,-0.1651 0.0508,-0.0508 0.127,-0.1651 0,0 0.0254,-0.0254 0.3937,-0.7239 0.7112,-1.3716 0.3302,-0.6477 0.508,-1.0668 z" />
      <path
              style="fill:#ffffff;fill-opacity:1"
              id="path86_COPY"
              d="m 108.0919492,168.9924 q -0.762,1.143 -1.8034,1.905 -1.0287,0.762 -2.2098,1.1303 -0.0381,0.3429 0.0381,0.6477 0.0889,0.3048 0.381,0.3683 l -0.0254,-0.0127 q 0.2413,0.0635 0.5842,-0.0381 0.3556,-0.1016 0.762,-0.3556 0.4191,-0.2667 0.8763,-0.6858 0.4572,-0.4191 0.9144,-0.9906 0.2413,-0.3048 0.4572,-0.6223 0.2286,-0.3302 0.4318,-0.6223 0.1397,-0.1651 0.3048,-0.1778 0.1778,-0.0127 0.2921,0.0889 0.127,0.0889 0.1524,0.2667 0.0381,0.1651 -0.1143,0.381 l -0.3175,0.4572 q -0.4064,0.5715 -0.9906,1.27 -0.5715,0.6858 -1.3081,1.3335 -0.4318,0.3556 -0.8382,0.5588 -0.4064,0.1905 -0.7493,0.2794 -0.3429,0.1016 -0.6223,0.1143 -0.2667,0.0254 -0.4191,0.0254 -0.9906,0 -1.4351,-0.5715 -0.4318,-0.5715 -0.3048,-1.5621 0.1143,-0.8636 0.5461,-1.6891 0.4445,-0.8255 1.2446,-1.7907 0.2794,-0.3175 0.6985,-0.6731 0.4191,-0.3683 0.9144,-0.6731 0.4953,-0.3048 1.0287,-0.4953 0.5461,-0.1905 1.0414,-0.1778 0.5207,0.0127 0.7874,0.3556 0.2667,0.3302 0.1651,0.9017 -0.0381,0.254 -0.1651,0.5207 -0.1143,0.254 -0.3302,0.5461 z m -0.6604,-1.0414 q -0.4572,0.0889 -0.9017,0.4064 -0.4445,0.3175 -0.8382,0.7493 -0.3937,0.4318 -0.7239,0.9271 -0.3302,0.4826 -0.5461,0.9144 0.9017,-0.3683 1.6764,-0.9906 0.7747,-0.635 1.3208,-1.5113 v 0.0127 q 0.0762,-0.1016 0.1016,-0.2032 0.0381,-0.1016 0.0635,-0.1778 0.0254,-0.1778 -0.1524,-0.127 z" />
      <path
         style="fill:#ffffff;fill-opacity:1"
         id="path96"
         d="m 137.86818,171.207 q -0.2413,0.3302 -0.635,0.8001 -0.3937,0.4699 -0.8636,0.9144 -0.4699,0.4445 -0.9652,0.762 -0.4826,0.3048 -0.9144,0.3048 -0.2667,0 -0.508,-0.1016 -0.2413,-0.0889 -0.3937,-0.2921 -0.1524,-0.2032 -0.2159,-0.5207 -0.0508,-0.3302 0.0381,-0.7747 0.0889,-0.381 0.2159,-0.7493 0.1397,-0.3683 0.3302,-0.7747 0.2032,-0.4064 0.4572,-0.8763 0.254,-0.4826 0.5842,-1.0795 0.1524,-0.254 0.2413,-0.4699 0.1016,-0.2286 0.127,-0.3683 l -0.6096,0.5207 q -0.5334,0.4445 -0.9906,0.889 -0.4445,0.4445 -0.9144,0.9779 -0.4318,0.7874 -0.7747,1.6129 -0.3429,0.8128 -0.5588,1.651 -0.0508,0.1397 -0.2667,0.127 -0.2159,-0.0127 -0.4572,-0.1143 -0.2286,-0.1143 -0.4064,-0.2794 -0.1905,-0.1651 -0.1778,-0.3302 0.1143,-0.5715 0.2921,-1.1049 0.1905,-0.5461 0.4191,-1.0668 0.2286,-0.5334 0.4826,-1.0414 0.2667,-0.5207 0.5334,-1.0414 0.3048,-0.6096 0.5969,-1.1811 0.2921,-0.5842 0.5207,-1.1176 0.1524,-0.0762 0.3683,0 0.2286,0.0635 0.4318,0.2159 0.2032,0.1524 0.3556,0.381 0.1524,0.2159 0.1905,0.4572 0.5461,-0.4572 1.1049,-0.7747 0.5588,-0.3175 1.1176,-0.3556 0.1778,0 0.3429,0.1651 0.1778,0.1524 0.3048,0.381 0.127,0.2286 0.1651,0.4953 0.0381,0.2667 -0.0508,0.4699 -0.3302,0.6477 -0.6477,1.2192 -0.3175,0.5588 -0.5461,0.9652 -0.2032,0.3556 -0.381,0.6604 -0.1651,0.2921 -0.3048,0.5842 -0.127,0.2921 -0.2413,0.5969 -0.1016,0.3048 -0.1905,0.6604 0.0127,-0.0254 0.0889,-0.0762 h -0.0127 q 0.381,-0.1905 0.9398,-0.6477 0.5588,-0.4572 1.1684,-1.2446 0.1651,-0.2032 0.3048,-0.3937 0.1524,-0.1905 0.2921,-0.381 l 0.2413,-0.3683 q 0.0508,-0.0635 0.1905,-0.0254 0.1397,0.0254 0.254,0.1143 0.127,0.0889 0.1905,0.2159 0.0762,0.1143 0,0.2032 l 0.0127,-0.0254 -0.8636,1.2192 z" />
      <path
         style="fill:#ffffff;fill-opacity:1"
         id="path98"
         d="m 138.9568,166.9906 q -0.2286,0.0762 -0.381,0 -0.1397,-0.0762 -0.1778,-0.2159 -0.0381,-0.1524 0.0381,-0.3302 0.0889,-0.1778 0.3048,-0.3175 0.5207,-0.3302 1.016,-0.5969 0.508,-0.2667 1.016,-0.4826 0.9525,-1.651 1.4351,-2.8321 0.2032,-0.1016 0.4699,0.0127 0.2794,0.1016 0.4953,0.3302 0.2286,0.2286 0.3429,0.5334 0.1143,0.2921 0,0.5715 l -0.3683,0.6477 q 0.8509,-0.1524 1.6764,-0.1524 0.127,0 0.3302,0.0127 0.2032,0 0.3302,0.0127 0.0254,0.1905 -0.0508,0.4191 -0.0635,0.2159 -0.1905,0.4191 -0.127,0.1905 -0.2921,0.3302 -0.1524,0.1397 -0.3048,0.1397 -0.127,-0.0127 -0.2667,-0.0127 -0.1397,-0.0127 -0.2794,-0.0127 -0.4318,0 -0.8763,0.0508 -0.4445,0.0508 -0.9017,0.1524 -0.1778,0.3048 -0.3683,0.5969 -0.1778,0.2921 -0.3556,0.5588 l -0.1016,0.1651 q -0.1524,0.2413 -0.4191,0.6604 -0.2667,0.4191 -0.5842,0.9398 -0.3048,0.508 -0.635,1.0795 -0.3302,0.5588 -0.6096,1.0922 -0.2794,0.5207 -0.4699,0.9652 -0.1905,0.4445 -0.2286,0.7112 -0.0254,0.0381 -0.0254,0.0635 0,0.0254 -0.0127,0.0381 h 0.0889 q 0.3683,-0.127 0.7239,-0.4064 0.3556,-0.2921 0.6858,-0.6477 0.3302,-0.3683 0.635,-0.7747 0.3048,-0.4191 0.5842,-0.8128 h -0.0127 q 0.0762,-0.1143 0.1651,-0.2159 0.0889,-0.1143 0.1651,-0.2159 0.0508,-0.0762 0.1778,-0.0381 0.127,0.0381 0.2413,0.127 0.127,0.0889 0.1905,0.2159 0.0762,0.1143 0.0254,0.2032 l -0.4191,0.5715 q -0.5207,0.7239 -1.1303,1.4732 -0.5969,0.7366 -1.27,1.2954 -0.1143,0.1016 -0.2921,0.2286 -0.1778,0.1143 -0.3937,0.2159 -0.2159,0.1016 -0.4572,0.1651 -0.2413,0.0762 -0.4826,0.0762 -0.2794,-0.0127 -0.4572,-0.1397 -0.1778,-0.127 -0.2794,-0.3302 -0.0889,-0.2159 -0.1016,-0.4826 -0.0254,-0.2794 0.0254,-0.6096 0.0254,-0.1397 0.0635,-0.2921 0.0381,-0.1651 0.0889,-0.2921 0.2032,-0.6477 0.4953,-1.2954 0.2921,-0.6477 0.635,-1.2827 0.3429,-0.635 0.7112,-1.2573 0.381,-0.6223 0.762,-1.2192 l 0.1651,-0.254 -0.8509,0.4318 z" />
      <path
         style="fill:#ffffff;fill-opacity:1"
         id="path100"
         d="m 143.06565,166.4318 q 0.1905,-0.0889 0.4445,0.0254 0.2667,0.1143 0.4699,0.3556 0.2159,0.2413 0.3048,0.5461 0.1016,0.3048 -0.0254,0.5969 -0.0635,0.1143 -0.1905,0.3429 -0.127,0.2286 -0.3048,0.5207 l 0.0127,-0.0127 q -0.254,0.4191 -0.5588,0.9398 -0.2921,0.508 -0.5588,1.016 -0.2667,0.508 -0.4699,0.9652 -0.1905,0.4445 -0.2286,0.7112 -0.0508,0.1016 -0.0508,0.1016 h 0.1143 q 0.3683,-0.127 0.7239,-0.4064 0.3556,-0.2921 0.6858,-0.6477 0.3302,-0.3683 0.635,-0.7747 0.3048,-0.4191 0.5842,-0.8128 h -0.0127 l 0.2159,-0.2794 q 0.3556,-0.6985 0.7239,-1.4859 0.381,-0.8001 0.7493,-1.651 0.1905,-0.0889 0.4572,0.0254 0.2794,0.1016 0.508,0.3302 0.2286,0.2286 0.3302,0.5334 0.1143,0.2921 -0.0127,0.5842 l -2.7178,5.0165 q -0.381,0.7112 -0.7493,1.3462 -0.3556,0.635 -0.7239,1.2065 0.381,0.2667 0.7366,0.5588 0.3556,0.3048 0.7112,0.6223 v -0.0254 q 0.0381,0.0381 0.0762,0.0889 0.0381,0.0508 0.0889,0.0889 0.127,0.1016 0.0762,0.2413 -0.0381,0.1397 -0.1778,0.2794 -0.1397,0.1397 -0.3556,0.254 -0.2032,0.127 -0.4191,0.2159 -0.2032,0.0889 -0.381,0.1143 -0.1651,0.0254 -0.2413,-0.0254 l -0.4699,-0.4318 -0.6477,-0.5715 q -0.9398,1.1684 -2.0193,1.8161 -1.0795,0.6477 -2.5146,0.6477 -0.4572,0 -0.8763,-0.1143 -0.4318,-0.1016 -0.7366,-0.3302 -0.3175,-0.2286 -0.4699,-0.5969 -0.1651,-0.3683 -0.0762,-0.9017 0.1143,-0.6731 0.508,-1.2573 0.381,-0.5715 0.9525,-1.0033 0.5588,-0.4191 1.2446,-0.6604 0.6858,-0.2286 1.397,-0.2286 0.3937,0 0.6985,0.0254 0.3175,0.0381 0.5715,0.0889 0.254,0.0635 0.4826,0.1397 0.2413,0.0889 0.4826,0.1905 0.2413,-0.4064 0.4699,-0.8128 0.2413,-0.3937 0.4826,-0.8128 l -0.2286,0.1905 q -0.1143,0.1016 -0.2921,0.2286 -0.1778,0.1143 -0.3937,0.2159 -0.2159,0.1016 -0.4572,0.1651 -0.2413,0.0762 -0.4826,0.0762 -0.5461,-0.0254 -0.7366,-0.4699 -0.1778,-0.4445 -0.0762,-1.0795 0.0254,-0.1397 0.0508,-0.3048 0.0381,-0.1651 0.0889,-0.3048 0.1016,-0.2794 0.254,-0.635 0.1524,-0.3683 0.3429,-0.7493 0.1905,-0.3937 0.3937,-0.8001 0.2032,-0.4191 0.3937,-0.8255 0.3175,-0.6477 0.5969,-1.2319 0.2794,-0.5969 0.4445,-0.9906 z m -5.2197,11.9507 q 0.4318,0 0.8509,-0.1651 0.4191,-0.1651 0.8255,-0.4699 0.4064,-0.3048 0.8128,-0.7239 0.3937,-0.4191 0.7747,-0.9271 -0.6477,-0.2921 -1.5113,-0.3048 -0.4191,0 -0.9144,0.0889 -0.4953,0.1016 -0.9144,0.3048 -0.4318,0.2032 -0.7366,0.508 -0.3175,0.3048 -0.3683,0.7239 -0.0508,0.2921 0.0508,0.4699 0.1016,0.1905 0.2794,0.2921 0.1778,0.1143 0.4064,0.1524 0.2286,0.0508 0.4445,0.0508 z" />
      <path
         style="fill:#ffffff;fill-opacity:1"
         id="path102"
         d="m 146.16902,171.1943 q 0.1524,-0.9525 0.6096,-1.9304 0.4699,-0.9906 1.1557,-1.8161 0.254,-0.9144 0.7493,-1.7907 0.508,-0.889 1.1684,-1.6764 0.6604,-0.8001 1.4224,-1.4732 0.7747,-0.6731 1.5748,-1.1684 0.8001,-0.508 1.5748,-0.8128 0.7874,-0.3048 1.4732,-0.3556 0.9525,0 1.6129,0.3302 0.6604,0.3302 1.0287,0.9144 0.381,0.5715 0.4826,1.3716 0.1143,0.7874 -0.0381,1.7018 -0.1905,1.0922 -0.6858,2.3114 -0.4826,1.2192 -1.2065,2.4003 -0.7239,1.1811 -1.651,2.2606 -0.9144,1.0795 -1.9558,1.8923 -1.0414,0.8001 -2.1717,1.2573 -1.1303,0.4699 -2.2606,0.4318 -0.9525,-0.0381 -1.5748,-0.3683 -0.6096,-0.3175 -0.9398,-0.8509 -0.3302,-0.5207 -0.4191,-1.1938 -0.0762,-0.6858 0.0508,-1.4351 z m 4.2037,-5.6007 q 0.3556,0 0.635,0.2159 0.2794,0.2159 0.4191,0.4953 0.1524,0.2794 0.1524,0.5461 0.0127,0.254 -0.1778,0.3429 -0.6477,0.1651 -1.2827,0.5715 -0.635,0.3937 -1.1811,0.9525 -0.0508,0.5334 0.0127,1.016 0.0762,0.4826 0.2921,0.9144 0.0254,0.1524 -0.1651,0.254 -0.1778,0.0889 -0.4318,0.127 -0.2413,0.0254 -0.4699,-0.0127 -0.2159,-0.0381 -0.2667,-0.1524 -0.0508,-0.1524 -0.0889,-0.2921 -0.0254,-0.1524 -0.0254,-0.3175 -0.4064,0.7239 -0.5461,1.4351 -0.0762,0.4191 0,0.7874 0.0762,0.3683 0.3302,0.635 0.254,0.2667 0.6858,0.4318 0.4445,0.1524 1.1176,0.1524 0.7239,0 1.5367,-0.4445 0.8128,-0.4572 1.6256,-1.2065 0.8128,-0.762 1.5748,-1.7399 0.762,-0.9779 1.3843,-2.032 0.6223,-1.0668 1.0541,-2.1209 0.4318,-1.0541 0.5842,-1.9558 0.0889,-0.5461 0.0508,-1.016 -0.0381,-0.4699 -0.2286,-0.8001 -0.1905,-0.3429 -0.5588,-0.5334 -0.3556,-0.2032 -0.9017,-0.2159 -0.7366,-0.0127 -1.5113,0.3175 -0.7747,0.3175 -1.5113,0.889 -0.7239,0.5588 -1.3843,1.3208 -0.6477,0.7493 -1.1303,1.5875 l 0.3175,-0.1397 z" />
      <path
         style="fill:#ffffff;fill-opacity:1"
         id="path104"
         d="m 163.66505,171.207 q -0.2413,0.3302 -0.635,0.8001 -0.3937,0.4699 -0.8636,0.9144 -0.4699,0.4445 -0.9652,0.762 -0.4826,0.3048 -0.9144,0.3048 -0.2667,0 -0.508,-0.1016 -0.2413,-0.0889 -0.3937,-0.2921 -0.1524,-0.2032 -0.2159,-0.5207 -0.0508,-0.3302 0.0381,-0.7747 0.0889,-0.381 0.2159,-0.7493 0.1397,-0.3683 0.3302,-0.7747 0.2032,-0.4064 0.4572,-0.8763 0.254,-0.4826 0.5842,-1.0795 0.1524,-0.254 0.2413,-0.4699 0.1016,-0.2286 0.127,-0.3683 l -0.6096,0.5207 q -0.5334,0.4445 -0.9906,0.889 -0.4445,0.4445 -0.9144,0.9779 -0.4318,0.7874 -0.7747,1.6129 -0.3429,0.8128 -0.5588,1.651 -0.0508,0.1397 -0.2667,0.127 -0.2159,-0.0127 -0.4572,-0.1143 -0.2286,-0.1143 -0.4064,-0.2794 -0.1905,-0.1651 -0.1778,-0.3302 0.1143,-0.5715 0.2921,-1.1049 0.1905,-0.5461 0.4191,-1.0668 0.2286,-0.5334 0.4826,-1.0414 0.2667,-0.5207 0.5334,-1.0414 0.3048,-0.6096 0.5969,-1.1811 0.2921,-0.5842 0.5207,-1.1176 0.1524,-0.0762 0.3683,0 0.2286,0.0635 0.4318,0.2159 0.2032,0.1524 0.3556,0.381 0.1524,0.2159 0.1905,0.4572 0.5461,-0.4572 1.1049,-0.7747 0.5588,-0.3175 1.1176,-0.3556 0.1778,0 0.3429,0.1651 0.1778,0.1524 0.3048,0.381 0.127,0.2286 0.1651,0.4953 0.0381,0.2667 -0.0508,0.4699 -0.3302,0.6477 -0.6477,1.2192 -0.3175,0.5588 -0.5461,0.9652 -0.2032,0.3556 -0.381,0.6604 -0.1651,0.2921 -0.3048,0.5842 -0.127,0.2921 -0.2413,0.5969 -0.1016,0.3048 -0.1905,0.6604 0.0127,-0.0254 0.0889,-0.0762 h -0.0127 q 0.381,-0.1905 0.9398,-0.6477 0.5588,-0.4572 1.1684,-1.2446 0.1651,-0.2032 0.3048,-0.3937 0.1524,-0.1905 0.2921,-0.381 l 0.2413,-0.3683 q 0.0508,-0.0635 0.1905,-0.0254 0.1397,0.0254 0.254,0.1143 0.127,0.0889 0.1905,0.2159 0.0762,0.1143 0,0.2032 l 0.0127,-0.0254 -0.8636,1.2192 z" />
      <path
         style="fill:#ffffff;fill-opacity:1"
         id="path106"
         d="m 168.75418,168.6924 q -0.762,1.143 -1.8034,1.905 -1.0287,0.762 -2.2098,1.1303 -0.0381,0.3429 0.0381,0.6477 0.0889,0.3048 0.381,0.3683 l -0.0254,-0.0127 q 0.2413,0.0635 0.5842,-0.0381 0.3556,-0.1016 0.762,-0.3556 0.4191,-0.2667 0.8763,-0.6858 0.4572,-0.4191 0.9144,-0.9906 0.2413,-0.3048 0.4572,-0.6223 0.2286,-0.3302 0.4318,-0.6223 0.1397,-0.1651 0.3048,-0.1778 0.1778,-0.0127 0.2921,0.0889 0.127,0.0889 0.1524,0.2667 0.0381,0.1651 -0.1143,0.381 l -0.3175,0.4572 q -0.4064,0.5715 -0.9906,1.27 -0.5715,0.6858 -1.3081,1.3335 -0.4318,0.3556 -0.8382,0.5588 -0.4064,0.1905 -0.7493,0.2794 -0.3429,0.1016 -0.6223,0.1143 -0.2667,0.0254 -0.4191,0.0254 -0.9906,0 -1.4351,-0.5715 -0.4318,-0.5715 -0.3048,-1.5621 0.1143,-0.8636 0.5461,-1.6891 0.4445,-0.8255 1.2446,-1.7907 0.2794,-0.3175 0.6985,-0.6731 0.4191,-0.3683 0.9144,-0.6731 0.4953,-0.3048 1.0287,-0.4953 0.5461,-0.1905 1.0414,-0.1778 0.5207,0.0127 0.7874,0.3556 0.2667,0.3302 0.1651,0.9017 -0.0381,0.254 -0.1651,0.5207 -0.1143,0.254 -0.3302,0.5461 z m -0.6604,-1.0414 q -0.4572,0.0889 -0.9017,0.4064 -0.4445,0.3175 -0.8382,0.7493 -0.3937,0.4318 -0.7239,0.9271 -0.3302,0.4826 -0.5461,0.9144 0.9017,-0.3683 1.6764,-0.9906 0.7747,-0.635 1.3208,-1.5113 v 0.0127 q 0.0762,-0.1016 0.1016,-0.2032 0.0381,-0.1016 0.0635,-0.1778 0.0254,-0.1778 -0.1524,-0.127 z" />
    </g>
  </g>
  <g
     transform="translate(-4.117648,-119.18628)"
     id="robotLayer"
     >
    <path
       id="path25"
       class="fill stroke leftArm_leftFinger"
       d="m 50.391464,129.51374 c 0.0066,-0.016 -1.364436,1.98677 0.645509,3.58428 l 0.441664,-0.91731 c 0,0 -1.222561,-1.17681 -0.40769,-2.07242 0,0 -0.739144,-0.55975 -0.679483,-0.59455 z"
       style="fill:#ffffff;fill-opacity:0.9986614;stroke:#ffffff;stroke-width:0.203385;stroke-linecap:butt;stroke-linejoin:miter;stroke-miterlimit:4;stroke-dasharray:none;stroke-opacity:1" />
    <path
       style="fill:#ffffff;fill-opacity:0.9986614;stroke:#ffffff;stroke-width:0.203385;stroke-linecap:butt;stroke-linejoin:miter;stroke-miterlimit:4;stroke-dasharray:none;stroke-opacity:1"
       d="m 54.065649,129.22319 c 0.0071,-0.0915 1.619522,2.10797 -0.533282,3.75742 l -0.627315,-0.90444 c 0.07705,0.16952 1.341299,-1.20256 0.443371,-2.28089 0,0 0.776886,-0.53728 0.717226,-0.57209 z"
       id="path25-6"
       class="fill stroke leftArm_rightFinger"/>
    <path
       d="m 52.429892,132.16359 -0.492665,0.0171 -0.781437,2.03452 c 0,0 0.9929,4.36081 1.189232,5.12557 0.445312,-0.1399 0.896618,-0.18377 1.357923,-0.0678 0.05846,0.0147 -0.04562,-5.09775 -0.04993,-5.10482 z m -0.101949,0.38231 1.078613,1.80066 -0.373638,4.5864 c 0,0 -0.289196,-4.03692 -0.577538,-4.30604 -0.254805,-0.23782 -1.044717,-0.26328 -1.044717,-0.26328 0,0 1.051542,-0.0259 1.036309,-0.22938 z"
       style="fill:#ffffff;fill-opacity:0.9986614;stroke:#ffffff;stroke-width:0.203385;stroke-linecap:butt;stroke-linejoin:miter;stroke-miterlimit:4;stroke-dasharray:none;stroke-opacity:1"
       id="path42"
       class="fill stroke leftArm_leftForearm"
    />
    <path
       d="m 53.263617,139.87153 a 1.4568196,1.4738067 0 0 0 -1.432807,1.47379 1.4568196,1.4738067 0 0 0 1.45698,1.4738 1.4568196,1.4738067 0 0 0 1.456717,-1.4738 1.4568196,1.4738067 0 0 0 -1.456717,-1.47379 1.4568196,1.4738067 0 0 0 -0.02417,0 z m 0.232801,0.22124 c 0.560912,-0.0111 1.033079,0.72788 0.907822,1.18976 -0.13677,0.50432 -0.769115,0.53303 -1.189234,0.072 -0.336321,-0.36908 -0.427841,-1.12836 0.168164,-1.24914 0.03803,-0.008 0.07585,-0.0119 0.113248,-0.0126 z"
       style="fill:#ffffff;fill-opacity:0.9986614;stroke:#ffffff;stroke-width:0.203385;stroke-miterlimit:4;stroke-dasharray:none;stroke-opacity:1"
       id="path44"
       class="fill stroke leftArm_leftElbow"
    />
    <path
       id="path3145"
       class="fill stroke leftArm_leftBiceps"
       style="fill:#ffffff;fill-opacity:0.9986614;stroke:#ffffff;stroke-width:0.203385;stroke-linecap:butt;stroke-linejoin:miter;stroke-miterlimit:4;stroke-dasharray:none;stroke-opacity:1"
       d="m 54.740041,140.06281 c 0.966443,1.1519 0.262106,2.81096 -0.322665,2.92158 1.196848,0.23246 2.910414,0.86228 3.567435,0.67949 -0.08611,-0.74177 -0.06097,-1.48351 0.0339,-2.22528 -1.40261,-0.82966 -2.18643,-0.90084 -3.278665,-1.37579 z m 0.839767,0.72022 1.987747,0.95564 c 0,0 -1.614584,-0.48406 -1.806182,-0.36313 l -0.277208,1.13694 z" />
    <path
       id="path3147"
       class="stroke head"
       d="m 64.001465,140.92206 c 1.54679,-0.0354 3.700205,-0.32689 5.393297,-1.46985 2.127054,-1.43591 3.361608,-3.87552 3.346385,-6.38026 -0.0089,-1.47625 0.461166,-5.71048 -2.926024,-6.14898 -3.744383,-3.16931 -8.861937,-1.42328 -11.0988,0.44408 -1.052809,0.88786 -2.188544,2.03167 -2.607463,3.62538 -0.409441,1.55765 -0.121974,3.55114 0.557939,5.63598 1.124094,2.78819 4.773788,4.41699 7.334666,4.29365 z"
       style="fill:none;stroke:#ffffff;stroke-width:0.541513;stroke-linecap:round;stroke-linejoin:round;stroke-miterlimit:4;stroke-dasharray:none;stroke-opacity:1" />
    <path
       d="m 61.289226,129.66294 c -2.081114,-0.004 -4.170072,0.52213 -5.062776,1.38368 -0.436239,0.42101 -0.991457,5.72351 2.609952,8.22215 0.323392,0.22437 1.595856,0.2258 2.382143,0.10957 1.582713,-0.23397 3.415254,-0.44656 4.525703,-1.59835 1.078872,-1.11904 1.668541,-2.92132 1.391292,-4.45082 -0.229235,-1.26463 -1.190391,-2.52961 -2.369005,-3.04218 -0.982819,-0.42742 -2.228641,-0.62138 -3.477309,-0.62405 z m 0.815331,1.94387 c 0.21254,0.0161 0.3928,0.19002 0.368908,0.4275 -0.107684,1.07049 0.01558,2.31994 0.413053,3.26343 0.137438,0.32639 -0.167921,0.57863 -0.731511,0.32687 -0.700833,-0.31308 -0.81809,-3.19574 -0.524199,-3.72483 0.1236,-0.22251 0.308441,-0.30551 0.473749,-0.29297 z m -3.407416,0.28194 c 0.02112,-10e-4 0.04213,-10e-4 0.0628,2.7e-4 0.21254,0.0161 0.392799,0.18975 0.368909,0.42724 -0.107685,1.07048 0.01558,2.31993 0.413052,3.26342 0.137438,0.32639 -0.167921,0.57864 -0.731512,0.32687 -0.700832,-0.31308 -0.818089,-3.19574 -0.524198,-3.72482 0.108151,-0.19471 0.263137,-0.2825 0.41095,-0.29298 z"
       style="fill:#ffffff;fill-opacity:0.9986614;stroke:#ffffff;stroke-width:0.134531px;stroke-linecap:butt;stroke-linejoin:miter;stroke-opacity:1"
       id="path3149"
       class="fill head_face"
    />
    <path
       d="m 70.180878,127.04695 c -0.12141,-0.003 -0.243666,0.0114 -0.365755,0.046 -1.563846,0.44345 -1.631961,3.20808 -1.111457,4.74799 0.319442,0.94508 1.32258,2.0438 2.310148,1.90262 1.982428,-0.2834 1.915462,-2.42005 1.66482,-3.77107 -0.223766,-1.20615 -1.324129,-2.89443 -2.497756,-2.92552 z m 0.460085,0.64244 c 0.882599,0.0241 1.710159,1.33555 1.878441,2.27257 0.188487,1.04956 0.239061,2.70956 -1.251767,2.92973 -0.742678,0.10967 -1.497376,-0.74381 -1.737604,-1.47801 -0.39143,-1.1963 -0.339957,-3.34406 0.836088,-3.68856 0.09181,-0.0269 0.183539,-0.0382 0.274842,-0.0357 z"
       style="fill:#ffffff;fill-opacity:0.9986614;stroke:#ffffff;stroke-width:0.134531px;stroke-linecap:butt;stroke-linejoin:miter;stroke-opacity:1"
       id="path5918"
       class="fill stroke head_ear"
    />
    <path
       id="path5936"
       class="fill stroke head_antenna"
       d="m 68.601625,120.49359 1.213498,6.42938 0.365753,0.12398 z"
       style="fill:#ffffff;fill-opacity:1;stroke:#ffffff;stroke-width:0.134531px;stroke-linecap:butt;stroke-linejoin:miter;stroke-opacity:1" />
    <ellipse
       ry="0.57756114"
       rx="0.50961274"
       cy="119.88206"
       cx="68.431755"
       id="path5938"
       class="stroke head_antenna_ballOnTop"
       style="fill:none;fill-opacity:0.811245;fill-rule:evenodd;stroke:#ffffff;stroke-width:0.236435;stroke-linecap:round;stroke-linejoin:round;stroke-miterlimit:4;stroke-dasharray:none;stroke-opacity:1" />
    <path
       id="path5940"
       class="fill stroke head_antenna_strokeOne"
       d="m 67.822252,126.88476 c 0.93662,-0.32202 3.118243,-0.77086 4.089545,-1.01388 0.164788,-0.0412 0.280082,0.458 0.114633,0.49655 -0.925093,0.21556 -3.113275,0.61743 -4.104819,0.94768 -0.13968,0.0465 -0.238566,-0.38249 -0.09936,-0.43035 z"
       style="fill:#ffffff;fill-opacity:0.9986614;stroke:#ffffff;stroke-width:0.134531px;stroke-linecap:butt;stroke-linejoin:miter;stroke-opacity:1" />
    <path
       style="fill:#ffffff;fill-opacity:0.9986614;stroke:#ffffff;stroke-width:0.0999059px;stroke-linecap:butt;stroke-linejoin:miter;stroke-opacity:1"
       d="m 68.156592,125.80604 c 0.695553,-0.23914 2.31568,-0.57246 3.036996,-0.75293 0.122372,-0.0306 0.207992,0.34012 0.08513,0.36875 -0.686995,0.16008 -2.311993,0.45852 -3.048339,0.70377 -0.103727,0.0345 -0.177164,-0.28405 -0.07378,-0.31959 z"
       id="path5940-5"
       class="fill stroke head_antenna_strokeTwo" />
    <path
       style="fill:none;stroke:#ffffff;stroke-width:0.439821;stroke-linecap:round;stroke-linejoin:round;stroke-miterlimit:4;stroke-dasharray:none;stroke-opacity:1"
       d="m 59.325769,140.15225 c -0.05252,0.2626 -0.761571,1.04208 -0.605256,3.50526 0.123385,1.94427 2.813551,6.12881 3.863242,7.41726 1.727023,2.11984 6.023448,5.19506 9.637503,5.001 2.590326,-0.13909 5.786124,-0.73759 6.48401,-4.30347 0.52474,-2.68119 0.656035,-6.05105 0.391904,-9.06347 -0.05761,-0.65707 -0.428208,-1.93189 -0.428208,-1.93189 m -1.128631,-3.43186 c -0.20427,-0.3376 -0.394435,-0.64579 -0.617772,-0.92554 -1.202425,-1.50614 -2.609902,-2.18762 -3.10995,-2.19199"
       id="path868"
       class="stroke body"/>
    <path
       style="fill:#ffffff;fill-opacity:0.9986614;stroke:#ffffff;stroke-width:0.134531px;stroke-linecap:butt;stroke-linejoin:miter;stroke-opacity:1"
       d="m 79.163953,146.34452 c 0,0 -0.346751,2.65836 -2.408102,3.09613 -1.447946,0.3075 -2.94324,-1.37606 -2.94324,-1.37606 0,0 2.329901,3.22288 1.490733,5.38956 -0.893838,2.30784 -3.554819,2.561 -3.554819,2.561 2.201803,0.0282 4.396397,-0.12389 6.498059,-2.59922 1.058595,-2.35714 0.672386,-4.71428 0.917369,-7.07141 z"
       id="path898"
       class="fill stroke body_lowerBack"
    />
    <path
       style="fill:none;stroke:#ffffff;stroke-width:0.439821;stroke-linecap:round;stroke-linejoin:miter;stroke-miterlimit:4;stroke-dasharray:none;stroke-opacity:1"
       d="m 70.062521,141.38319 c 0,0 -0.117129,0.98301 -0.105755,1.66573 0.01759,1.05632 1.736789,3.33746 1.916647,3.30749"
       id="path901"
       class="stroke body_verticalStroke"
    />
    <rect
       style="fill:#ffffff;fill-opacity:0.9986614;fill-rule:evenodd;stroke:#ffffff;stroke-width:0.421604;stroke-linecap:round;stroke-linejoin:round;stroke-miterlimit:4;stroke-dasharray:none;stroke-opacity:1"
       id="rect903"
       class="fill stroke body_tummyRect"
       width="6.6467347"
       height="4.5810113"
       x="10.737371"
       y="152.09914"
       ry="0.9614436"
       transform="matrix(1,0,0.32557287,0.94551695,0,0)" />
    <path
       id="path910"
       class="fill stroke rightArm_armpit"
       style="fill:#ffffff;fill-opacity:0.9986614;stroke:#ffffff;stroke-width:0.134742;stroke-linecap:round;stroke-linejoin:round;stroke-miterlimit:4;stroke-dasharray:none;stroke-opacity:1;paint-order:normal"
       d="m 73.788902,137.82415 c -1.143148,0.67617 -1.302514,2.90521 -0.881934,3.97049 0.412583,1.045 1.429137,2.15447 2.551621,2.20241 1.305734,0.0558 2.152749,-1.3145 1.712378,-2.72188 -0.05684,-0.18167 -0.116323,-0.36478 -0.177885,-0.54758 0.134545,0.84889 -0.404749,1.60955 -1.202107,1.57548 -0.751549,-0.0321 -1.432195,-0.77491 -1.708438,-1.47459 -0.281596,-0.71324 -0.21957,-2.03992 0.545814,-2.49265 0.279288,-0.1652 0.826408,-0.055 1.147937,0.11993 -0.626723,-0.50272 -1.282814,-1.04007 -1.987386,-0.63161 z"
    />
    <path
       id="path44-0"
       class="fill stroke rightArm_elbow"
       style="fill:#ffffff;fill-opacity:0.9986614;stroke:#ffffff;stroke-width:0.203385;stroke-miterlimit:4;stroke-dasharray:none;stroke-opacity:1"
       d="m 82.660716,135.63894 a 1.4568196,1.4738067 0 0 0 -1.432809,1.4738 1.4568196,1.4738067 0 0 0 1.456982,1.47379 1.4568196,1.4738067 0 0 0 1.456716,-1.47379 1.4568196,1.4738067 0 0 0 -1.456716,-1.4738 1.4568196,1.4738067 0 0 0 -0.02415,0 z m 0.2328,0.22124 c 0.560911,-0.011 1.033081,0.72788 0.907821,1.18976 -0.136767,0.50432 -0.769112,0.53303 -1.18923,0.072 -0.336323,-0.36908 -0.427841,-1.12836 0.168164,-1.24914 0.03803,-0.008 0.07585,-0.0119 0.113245,-0.0126 z" />
    <path
       id="path42-4"
       class="fill stroke rightArm_forearm"
       style="fill:#ffffff;fill-opacity:0.9986614;stroke:#ffffff;stroke-width:0.225641;stroke-linecap:butt;stroke-linejoin:miter;stroke-miterlimit:4;stroke-dasharray:none;stroke-opacity:1"
       d="m 81.721422,127.1981 -0.546578,0.019 -0.866945,2.25715 c 0,0 1.10155,4.83799 1.319361,5.68643 0.494043,-0.1552 0.994732,-0.20388 1.506515,-0.0752 0.06485,0.0163 -0.05059,-5.65557 -0.0554,-5.66341 z m -0.113103,0.42414 1.196633,1.99771 -0.41452,5.08827 c 0,0 -0.320845,-4.47866 -0.640735,-4.77723 -0.28269,-0.26385 -1.159036,-0.29209 -1.159036,-0.29209 0,0 1.166608,-0.0287 1.149706,-0.25449 z" />
    <path
       style="fill:#ffffff;fill-opacity:0.9986614;stroke:#ffffff;stroke-width:0.245896;stroke-linecap:butt;stroke-linejoin:miter;stroke-miterlimit:4;stroke-dasharray:none;stroke-opacity:1"
       d="m 79.292803,123.85522 c -0.07613,-0.0404 -1.851539,2.44234 0.875991,4.44812 l 0.519507,-1.25073 c 0.0095,0.01 -1.197619,-1.20988 -0.330735,-2.411 0,0 -1.136894,-0.74431 -1.064763,-0.78639 z"
       id="path25-8"
       class="fill stroke rightArm_rightFinger"
    />
    <path
       id="path25-6-8"
       class="fill stroke rightArm_leftFinger"
       d="m 83.524717,123.54217 c 0.0086,-0.11061 1.9198,2.58679 -0.682973,4.581 l -0.720207,-1.1317 c 0.09315,0.20494 1.621652,-1.45391 0.536037,-2.75764 0,0 0.939269,-0.64958 0.867143,-0.69166 z"
       style="fill:#ffffff;fill-opacity:0.9986614;stroke:#ffffff;stroke-width:0.245896;stroke-linecap:butt;stroke-linejoin:miter;stroke-miterlimit:4;stroke-dasharray:none;stroke-opacity:1" />
    <path
       style="fill:none;stroke:#ffffff;stroke-width:0.287282;stroke-linecap:round;stroke-linejoin:round;stroke-miterlimit:4;stroke-dasharray:none;stroke-opacity:1"
       d="m 73.305917,156.22175 c 0,0 -0.549196,1.68068 -0.486508,2.54067 0.07976,1.09407 0.329932,2.38043 1.081136,3.10826 0,0 1.682728,0.24045 2.27038,-0.24326 0.611661,-0.50347 0.574629,-1.36828 0.702737,-2.27038 0.20491,-1.44293 1.16283,-3.26028 2.621748,-3.48666 0.696478,-0.10806 1.473781,0.50226 1.783873,1.13519 0.234879,0.47942 0.302942,1.63916 -0.14866,1.59468"
       id="path1007"
       class="stroke wheel"
    />
    <path
       style="fill:none;stroke:#ffffff;stroke-width:0.287282;stroke-linecap:round;stroke-linejoin:round;stroke-miterlimit:4;stroke-dasharray:none;stroke-opacity:1"
       d="m 78.166104,154.05948 c 0,0 0.992424,0.24685 1.413787,0.51994 0.613044,0.39732 1.187867,0.92346 1.530531,1.56865 0.316747,0.59638 0.409114,1.9841 0.409114,1.9841"
       id="path1009"
       class="stroke wheel_fender"
    />
    <path
       id="path1011"
       class="fill stroke wheel_inner"
       style="fill:#ffffff;fill-opacity:0.9986614;stroke:#ffffff;stroke-width:0.134531px;stroke-linecap:butt;stroke-linejoin:miter;stroke-opacity:1"
       d="m 79.552459,155.9374 c -1.02323,0.0877 -2.211793,1.39652 -2.540503,2.56747 -0.221583,0.78935 -0.08921,1.53567 -0.243365,2.03012 -0.1682,0.31164 -0.293566,0.77104 -0.507612,0.96038 -0.621143,0.54943 -1.630596,0.42924 -1.630596,0.42924 0,0 0.308824,0.83426 0.594616,1.16243 0.361122,0.41467 0.802258,0.97508 1.351352,0.94592 0.797087,-0.0423 1.637415,-0.0576 2.418293,-0.15096 0.758705,-0.0907 1.373488,-0.77545 1.744021,-1.4437 0.623605,-1.12468 0.56889,-2.5643 0.392031,-3.83808 -0.122637,-0.88324 -0.986648,-2.48672 -0.986648,-2.48672 -0.828798,-0.29808 0.214072,-0.1357 -0.591589,-0.1761 z m -0.273291,4.83445 c -0.406444,0.0644 -0.611121,-0.63734 -0.654883,-1.04652 -0.03923,-0.3668 0.0092,-0.9966 0.375381,-1.04108 0.347756,-0.0422 0.523015,0.52938 0.582765,0.87456 0.07109,0.41068 0.108396,1.14783 -0.303263,1.21304 z"
    />
    <path
       style="fill:none;stroke:#ffffff;stroke-width:0.134531px;stroke-linecap:butt;stroke-linejoin:miter;stroke-opacity:1"
       d="m 79.068393,159.18773 c -0.212004,0.0398 -0.214196,0.40791 -0.181578,0.62113 0.02776,0.18165 0.125036,0.49179 0.30579,0.4587 0.2379,-0.0436 0.214038,-0.47086 0.162454,-0.70715 -0.03341,-0.15312 -0.132633,-0.40161 -0.286666,-0.37268 z"
       id="path1016"
       class="stroke wheel_innerCircle"
    />
    <path
       style="fill:none;stroke:#ffffff;stroke-width:0.424179;stroke-linecap:round;stroke-linejoin:round;stroke-miterlimit:4;stroke-dasharray:none;stroke-opacity:1"
       d="m 81.200216,161.87194 3.978975,-2.87409"
       id="path1018"
       class="stroke wheel_behind"
    />
    <path
       id="path1018-3"
       class="stroke wheel_behind"
       d="m 81.367211,161.14923 7.446145,-5.39527"
       style="fill:none;stroke:#ffffff;stroke-width:0.439312;stroke-linecap:round;stroke-linejoin:round;stroke-miterlimit:4;stroke-dasharray:none;stroke-opacity:1" />
    <path
       id="path1018-6"
       class="stroke wheel_behind"
       d="m 81.533148,160.38867 3.978974,-2.8741"
       style="fill:none;stroke:#ffffff;stroke-width:0.42418;stroke-linecap:round;stroke-linejoin:round;stroke-miterlimit:4;stroke-dasharray:none;stroke-opacity:1" />
    <path
       id="path929"
       class="fill stroke rightArm_biceps"
       style="fill:#ffffff;fill-opacity:0.9986614;stroke:#ffffff;stroke-width:0.134742;stroke-linecap:butt;stroke-linejoin:round;stroke-miterlimit:2.75;stroke-dasharray:none;stroke-opacity:1"
       d="m 80.731044,136.2342 -6.058357,3.21087 c 0,0 0.03381,0.5794 0.152924,0.87919 0.133756,0.33662 0.554151,0.86 0.554151,0.86 l 6.383387,-1.77728 c 0,0 -0.805694,-0.67144 -1.012924,-1.16585 -0.265971,-0.63454 -0.01918,-2.00693 -0.01918,-2.00693 z m -0.707074,0.74544 c 0,0 0.06019,0.56518 0.130589,0.8395 0.102897,0.40092 0.423562,1.16716 0.423562,1.16716 l -0.95538,-0.93646 c -0.185945,-0.18222 -4.166517,1.4336 -4.166517,1.4336 z" />
  </g>
</svg>
